<svg width="30" height="32" viewBox="0 0 30 32" fill="none" xmlns="http://www.w3.org/2000/svg">
<path fill-rule="evenodd" clip-rule="evenodd" d="M14.3606 24.5848C10.953 24.1615 9.24918 21.6734 9.24918 17.1204V0H0V17.3894C0 22.0504 1.3391 25.6508 4.01732 28.1905C6.72668 30.7301 10.5104 32 15.3686 32C17.0417 32 18.5854 31.8494 20 31.5481C17.6597 29.63 15.7315 27.2625 14.3606 24.5848Z" fill="#f53838"/>
<path fill-rule="evenodd" clip-rule="evenodd" d="M30 24.6239C26.552 24.3139 24.828 21.8144 24.828 17.1252V0H16V17.3942C16 22.0566 17.2781 25.658 19.8344 28.1984C22.2947 30.6153 25.6833 31.8825 30 32V24.6239Z" fill="#f53838" />
</svg>
